HIERARCHY
ROOT Hips
{
	OFFSET -0.001795 -0.223333 0.028219
	CHANNELS 6 Xposition Yposition Zposition Zrotation Yrotation Xrotation 
	JOINT LeftUpLeg
	{
		OFFSET 0.069520 -0.091406 -0.006815
		CHANNELS 3 Zrotation Yrotation Xrotation
		JOINT LeftLeg
		{
			OFFSET 0.034277 -0.375199 -0.004496
			CHANNELS 3 Zrotation Yrotation Xrotation
			JOINT LeftFoot
			{
				OFFSET -0.013596 -0.397961 -0.043693
				CHANNELS 3 Zrotation Yrotation Xrotation
				JOINT LeftToe
				{
					OFFSET 0.026358 -0.055791 0.119288
					CHANNELS 3 Zrotation Yrotation Xrotation
					End Site
					{
						OFFSET 0.000000 0.000000 0.000000
					}
				}
			}
		}
	}
	JOINT RightUpLeg
	{
		OFFSET -0.067670 -0.090522 -0.004320
		CHANNELS 3 Zrotation Yrotation Xrotation
		JOINT RightLeg
		{
			OFFSET -0.038290 -0.382569 -0.008850
			CHANNELS 3 Zrotation Yrotation Xrotation
			JOINT RightFoot
			{
				OFFSET 0.015774 -0.398415 -0.042312
				CHANNELS 3 Zrotation Yrotation Xrotation
				JOINT RightToe
				{
					OFFSET -0.025372 -0.048144 0.123348
					CHANNELS 3 Zrotation Yrotation Xrotation
					End Site
					{
						OFFSET 0.000000 0.000000 0.000000
					}
				}
			}
		}
	}
	JOINT Spine
	{
		OFFSET -0.002533 0.108963 -0.026696
		CHANNELS 3 Zrotation Yrotation Xrotation
		JOINT Spine1
		{
			OFFSET 0.005487 0.135180 0.001092
			CHANNELS 3 Zrotation Yrotation Xrotation
			JOINT Spine2
			{
				OFFSET 0.001457 0.052922 0.025425
				CHANNELS 3 Zrotation Yrotation Xrotation
				JOINT Neck
				{
					OFFSET -0.002778 0.213870 -0.042857
					CHANNELS 3 Zrotation Yrotation Xrotation
					JOINT Head
					{
						OFFSET 0.005152 0.064970 0.051349
						CHANNELS 3 Zrotation Yrotation Xrotation
						End Site
						{
							OFFSET 0.000000 0.000000 0.000000
						}
					}
				}
				JOINT LeftShoulder
				{
					OFFSET 0.078845 0.121749 -0.034090
					CHANNELS 3 Zrotation Yrotation Xrotation
					JOINT LeftArm
					{
						OFFSET 0.090977 0.030469 -0.008868
						CHANNELS 3 Zrotation Yrotation Xrotation
						JOINT LeftForeArm
						{
							OFFSET 0.259612 -0.012772 -0.027456
							CHANNELS 3 Zrotation Yrotation Xrotation
							JOINT LeftHand
							{
								OFFSET 0.249234 0.008986 -0.001171
								CHANNELS 3 Zrotation Yrotation Xrotation
								End Site
								{
									OFFSET 0.000000 0.000000 0.000000
								}
							}
						}
					}
				}
				JOINT RightShoulder
				{
					OFFSET -0.081759 0.118833 -0.038615
					CHANNELS 3 Zrotation Yrotation Xrotation
					JOINT RightArm
					{
						OFFSET -0.096012 0.032551 -0.009143
						CHANNELS 3 Zrotation Yrotation Xrotation
						JOINT RightForeArm
						{
							OFFSET -0.253742 -0.013329 -0.021401
							CHANNELS 3 Zrotation Yrotation Xrotation
							JOINT RightHand
							{
								OFFSET -0.255298 0.007772 -0.005559
								CHANNELS 3 Zrotation Yrotation Xrotation
								End Site
								{
									OFFSET 0.000000 0.000000 0.000000
								}
							}
						}
					}
				}
			}
		}
	}
}
MOTION
Frames: 6
Frame Time: 0.050000
-0.572483 0.930415 0.209952 4.969450 58.062499 3.321126 0.175556 -0.189124 -1.933470 -9.358914 -2.941259 26.029550 13.823390 19.507146 2.282268 0.000000 0.000000 0.000000 2.524154 -0.395840 2.819375 2.248210 -1.127021 4.409198 -5.235595 -20.162408 -3.667871 0.000000 0.000000 0.000000 0.028388 -0.138450 3.265142 -2.262829 1.114150 -3.484870 2.734275 1.015879 12.382781 -1.865388 6.930450 -26.315468 0.000000 0.000000 0.000000 -16.785384 -0.347007 -9.617791 -57.116431 -1.417397 -6.414908 -1.791607 -45.207775 -2.780979 0.000000 0.000000 0.000000 11.071076 2.877023 5.540885 57.270783 15.519252 2.519207 -5.124786 27.881964 1.023965 0.000000 0.000000 0.000000 
-0.583776 0.926113 0.203755 3.492682 61.259082 2.833021 0.169408 -0.204227 2.333221 -6.295286 -2.202200 19.919231 12.272400 15.929785 1.646083 0.000000 0.000000 0.000000 3.736349 -0.221576 2.141909 2.177391 -1.110767 3.578214 -5.116932 -21.368542 -4.585252 0.000000 0.000000 0.000000 -0.024811 -0.076863 2.113570 -1.024500 0.498080 -2.899788 2.371940 -0.288231 12.302210 -1.057193 6.612388 -25.334498 0.000000 0.000000 0.000000 -16.064668 -0.097224 -9.566535 -58.070634 -2.807747 -6.137603 -0.850167 -46.143802 -3.481709 0.000000 0.000000 0.000000 11.829312 2.526102 5.743251 58.657705 15.186527 2.591217 -6.176300 27.325171 0.762433 0.000000 0.000000 0.000000 
-0.593314 0.922267 0.198315 1.126441 64.581914 1.659306 0.760795 -0.502616 4.996242 -3.348162 -1.196258 12.364061 11.248454 12.627777 0.101285 0.000000 0.000000 0.000000 4.810916 0.128345 0.345805 2.340647 -1.305965 3.932775 -5.315796 -22.555904 -4.735359 0.000000 0.000000 0.000000 -0.075265 -0.054378 1.545853 -0.130733 0.020421 -2.563469 2.909911 -1.676127 12.046453 -0.973788 6.607520 -24.526386 0.000000 0.000000 0.000000 -15.962395 -0.675998 -9.405650 -58.129990 -4.134779 -5.578414 -0.613595 -46.711401 -3.690785 0.000000 0.000000 0.000000 14.000724 1.164732 5.912534 58.464016 15.218360 2.044953 -6.988234 27.311704 0.676656 0.000000 0.000000 0.000000 
-0.601321 0.919854 0.193814 -0.166340 66.635613 1.085460 1.083688 -0.771788 6.469201 -2.071630 -0.563320 6.364225 11.299103 11.844746 0.021656 0.000000 0.000000 0.000000 5.430818 0.314512 -0.657980 2.247852 -1.360639 4.016957 -5.661672 -24.153347 -4.837011 0.000000 0.000000 0.000000 -0.321557 -0.042277 1.156485 0.634762 -0.360893 -2.390848 3.001376 -1.530544 11.782899 -1.200707 6.861691 -24.467877 0.000000 0.000000 0.000000 -15.409796 -1.445366 -9.219898 -58.950193 -4.585611 -5.596761 -0.519424 -47.661520 -4.185364 0.000000 0.000000 0.000000 14.258716 0.836867 6.102485 59.589054 14.577733 1.985074 -7.456507 27.534851 0.657746 0.000000 0.000000 0.000000 
-0.607647 0.919798 0.190571 -0.535867 68.169443 0.680397 1.458414 -0.854471 6.135816 -1.514289 -0.473655 4.935140 10.776037 10.729738 -0.308842 0.000000 0.000000 0.000000 5.501854 0.389539 -1.183171 1.994721 -1.386772 4.415235 -5.908082 -24.437034 -4.291900 0.000000 0.000000 0.000000 -0.644368 -0.046884 1.306069 0.893279 -0.484687 -2.432621 3.067065 -1.507197 11.578476 -1.658488 7.095221 -23.729021 0.000000 0.000000 0.000000 -14.540873 -1.268397 -9.048516 -60.102441 -4.321196 -6.262781 -2.475647 -47.763275 -3.524969 0.000000 0.000000 0.000000 14.705903 0.900499 6.544522 60.501053 14.647550 2.104085 -7.629354 27.013693 0.592707 0.000000 0.000000 0.000000 
-0.612604 0.920487 0.188307 -0.610694 68.659153 0.446710 1.660737 -0.864946 5.707479 -1.571032 -0.425506 3.960302 10.551947 10.361349 -0.357341 0.000000 0.000000 0.000000 5.545285 0.356778 -0.919820 1.919115 -1.234459 3.300291 -6.331816 -24.404090 -3.044805 0.000000 0.000000 0.000000 -0.993391 -0.045852 1.141949 0.754568 -0.447008 -2.410054 3.460549 -1.313530 11.215086 -1.820566 7.150846 -23.084897 0.000000 0.000000 0.000000 -14.068888 -0.819909 -9.062560 -60.495396 -3.420921 -6.971745 -4.818449 -46.042380 -2.380587 0.000000 0.000000 0.000000 13.818034 1.415877 6.544541 61.808414 13.887309 2.284184 -6.394921 28.016852 0.853234 0.000000 0.000000 0.000000 
